<svg id="Calque_1" data-name="Calque 1" xmlns="http://www.w3.org/2000/svg" viewBox="0 0 167.58 45.82"><title>Sans titre - 1</title><path d="M714.82,423.21h7.09v41.6c0,.55-.1,1.18-.17,1.88s-.14,1.39-.18,2.05h-6.74Zm28.89,22.5a23.39,23.39,0,0,1,.7,5.92,26.54,26.54,0,0,1-.79,6.5,18.06,18.06,0,0,1-2.4,5.6,12.43,12.43,0,0,1-4,3.87,11.14,11.14,0,0,1-5.72,1.43,15.71,15.71,0,0,1-3.92-.47,11.47,11.47,0,0,1-3.23-1.29v-6.09a7.4,7.4,0,0,0,2.08,1.64,5.55,5.55,0,0,0,2.67.65,6,6,0,0,0,3.19-.88,8.07,8.07,0,0,0,2.46-2.38,12.32,12.32,0,0,0,1.64-3.54,14.9,14.9,0,0,0,.62-4.4,16.52,16.52,0,0,0-.56-4.33,13.91,13.91,0,0,0-1.52-3.63,7.87,7.87,0,0,0-2.37-2.52,5.57,5.57,0,0,0-3.17-.94,6.26,6.26,0,0,0-2.78.61,7.07,7.07,0,0,0-2.26,1.79V437a11.79,11.79,0,0,1,3-1.17,14.19,14.19,0,0,1,3.4-.41,15.41,15.41,0,0,1,3.93.53,11.51,11.51,0,0,1,3.72,1.75,13.89,13.89,0,0,1,3.16,3.23A14.75,14.75,0,0,1,743.71,445.71Z" transform="translate(-714.82 -423.21)" style="fill:#426d7b"/><path d="M750,453a3.58,3.58,0,0,1,3.6-3.78c2.1,0,3.48,1.56,3.54,3.78a3.55,3.55,0,0,1-3.6,3.78A3.5,3.5,0,0,1,750,453Z" transform="translate(-714.82 -423.21)" style="fill:#6fadd6"/><path d="M800.54,468.74h-7.26l-11.2-32.34-11.3,32.34h-7.33l15.12-43.13h7ZM786,455l1.7,4.74H776.46L778.1,455Z" transform="translate(-714.82 -423.21)" style="fill:#8eb8ae"/><path d="M815.89,435.69l.76,3.4v29.65h-7.09V435.69Zm3.17,1.47a12.35,12.35,0,0,1,3.51-1.26,27.34,27.34,0,0,1,5.57-.44v7.38a15.63,15.63,0,0,0-6.59-.32,14.62,14.62,0,0,0-2.49.61Z" transform="translate(-714.82 -423.21)" style="fill:#547d94"/><path d="M845.13,458.72a7.47,7.47,0,0,0,.53,3.11,3.85,3.85,0,0,0,1.49,1.69,5.33,5.33,0,0,0,2.17.74,22.8,22.8,0,0,0,2.55.14v4.34c-.51.08-1,.14-1.52.18s-1,.06-1.56.08L847,469c-.59,0-1.19,0-1.79-.06a13.56,13.56,0,0,1-1.55-.17,5,5,0,0,1-3.11-1.73,9.66,9.66,0,0,1-1.67-3.05,14.58,14.58,0,0,1-.7-3.25q-.15-1.57-.15-2.46V440.5h-4.33v-4.81H838v-9.37h7.09v9.37h5.27v4.81h-5.27Z" transform="translate(-714.82 -423.21)" style="fill:#6f99c7"/><path d="M859.43,445.13a9.47,9.47,0,0,1,.82-4,8.79,8.79,0,0,1,2.28-3,11.7,11.7,0,0,1,3.31-2,13.61,13.61,0,0,1,3.84-.9V441a4.23,4.23,0,0,0-2.37,1.23,3.79,3.79,0,0,0-.85,2.64,2.94,2.94,0,0,0,.91,2.26,8.61,8.61,0,0,0,2.31,1.49v6.27c-.66-.19-1.34-.42-2-.67s-1.36-.54-2-.85a16,16,0,0,1-4.66-3.46A7.15,7.15,0,0,1,859.43,445.13Zm3.1,16.23a16.4,16.4,0,0,0,2.79,1.52,10.18,10.18,0,0,0,4.07.7h.29V469c-1,0-1.87,0-2.69-.09a11.87,11.87,0,0,1-2.43-.41,13.65,13.65,0,0,1-2.44-.9,17.49,17.49,0,0,1-2.57-1.53ZM879,442.67a14.47,14.47,0,0,0-3.37-1.24,23,23,0,0,0-3.55-.52v-5.8a22.11,22.11,0,0,1,4.87.73,15.79,15.79,0,0,1,4.33,2Zm-6.92,6.91c1.18.39,2.37.82,3.58,1.29a15.14,15.14,0,0,1,3.31,1.76,8.84,8.84,0,0,1,2.46,2.6,7.32,7.32,0,0,1,1,3.9,9.15,9.15,0,0,1-.82,4,9.26,9.26,0,0,1-2.2,2.93,10.25,10.25,0,0,1-3.25,1.94,16.65,16.65,0,0,1-4,.94v-5.57a6.59,6.59,0,0,0,3.08-1.26,3,3,0,0,0,1.08-2.43,2.75,2.75,0,0,0-1.2-2.38,12.76,12.76,0,0,0-3-1.49Z" transform="translate(-714.82 -423.21)" style="fill:#afd2e9"/></svg>